<?xml version="1.0" encoding="UTF-8"?>
<svg width="759px" height="865px" viewBox="0 0 759 865" version="1.1" xmlns="http://www.w3.org/2000/svg" xmlns:xlink="http://www.w3.org/1999/xlink">
    <title>Artboard</title>
    <g id="Artboard" stroke="none" stroke-width="1" fill="none" fill-rule="evenodd">
        <g id="5" transform="translate(0.267042, -0.048026)" fill-rule="nonzero">
            <path d="M151.662958,595.59 C150.662958,590.34 155.442958,588.66 158.092958,585.97 C218.819625,524.636667 279.616292,463.396667 340.482958,402.25 C341.882958,400.84 343.092958,399.25 345.782958,396.1 L212.682958,396.1 C212.312958,395.17 211.952958,394.24 211.592958,393.31 L706.942958,0 L709.342958,2.31 L487.542958,274.03 L606.042958,274.03 L607.272958,276.43 L414.052958,470.72 L415.212958,473.21 L546.452958,473.21 L547.622958,476.03 L46.3729584,873.45 L44.8129584,871.87 C57.6662918,856.163333 70.5162918,840.46 83.3629584,824.76 C144.129625,750.76 204.899625,676.733333 265.672958,602.68 C266.201393,601.808135 266.611649,600.869927 266.892958,599.89 C265.662958,593.95 260.892958,596.65 257.822958,596.63 C225.822958,596.41 193.742958,596.52 161.702958,596.45 C158.362958,596.45 154.882958,597.26 151.662958,595.59 Z" id="Path" fill="#FEDF15"></path>
            <path d="M63.5429584,433.5 C64.7929584,530.14 101.182958,610.77 174.542958,674.26 C181.792958,680.54 181.902958,684.37 175.802958,691.18 C166.222958,701.86 157.372958,713.18 148.692958,724.68 C144.592958,730.09 141.872958,730.2 136.592958,725.68 C76.2929584,674.733333 35.4529584,611.296667 14.0729584,535.37 C-3.92704157,470.92 -4.75704157,405.84 12.1429584,341.37 C36.5729584,248.13 87.9629584,172.95 169.142958,119.57 C242.242958,71.51 322.272958,49.75 409.992958,57.34 C458.302958,61.52 504.212958,73.66 547.632958,95.21 C557.872958,100.29 557.892958,100.4 549.402958,107.44 C535.982958,118.56 522.402958,129.52 509.072958,140.75 C505.072958,144.14 501.682958,145.25 496.242958,143.07 C444.972958,122.56 392.052958,115.68 337.132958,123.45 C227.842958,138.92 147.702958,195.99 96.0729584,292.8 C72.8129584,336.42 62.2929584,383.69 63.5429584,433.5 Z" id="Path" fill="#BC072A"></path>
            <path d="M200.732958,768.52 C218.432958,754.1 234.902958,740.82 251.192958,727.31 C254.602958,724.48 257.372958,725.83 260.632958,727.1 C302.962958,743.52 346.632958,751.88 392.222958,749.89 C461.162958,746.883333 522.552958,723.883333 576.392958,680.89 C627.162958,640.49 662.392958,589.2 681.012958,527.26 C717.542958,405.7 682.172958,279.09 584.012958,194.18 C576.912958,188.04 576.962958,184.76 582.862958,178.33 C592.772958,167.52 602.022958,156.05 611.072958,144.48 C614.772958,139.74 617.012958,139.78 621.582958,143.6 C678.192958,190.94 717.582958,249.7 740.432958,319.86 C757.492958,372.22 762.992958,425.8 755.992958,480.1 C745.542958,561.36 712.542958,632.73 656.272958,692.94 C609.172958,743.37 552.522958,778.59 486.462958,798.09 C433.142958,813.83 378.682958,816.81 323.592958,809.26 C280.742958,803.39 240.732958,789.19 200.732958,768.52 Z" id="Path" fill="#161692"></path>
        </g>
    </g>
</svg>