<?xml version="1.0" encoding="UTF-8"?>
<svg width="512px" height="512px" viewBox="0 0 512 512" version="1.1" xmlns="http://www.w3.org/2000/svg" xmlns:xlink="http://www.w3.org/1999/xlink">
    <title>times-tables-champ</title>
    <g id="times-tables-champ" stroke="none" stroke-width="1" fill="none" fill-rule="evenodd">
        <g id="5" transform="translate(49.000000, 18.000000)" fill-rule="nonzero">
            <path d="M82.3668909,325.257805 C81.8206402,322.390726 84.4317187,321.473261 85.8792831,320.004225 C119.051269,286.509462 152.261493,253.065671 185.509954,219.672849 C186.274705,218.902834 186.935669,218.034518 188.405083,216.314271 L115.699111,216.314271 C115.496998,215.806388 115.300348,215.298506 115.103697,214.790623 L385.688998,0 L387,1.26151468 L265.841587,149.650592 L330.572299,149.650592 L331.244188,150.961257 L225.697621,257.065018 L226.331272,258.424833 L298.021218,258.424833 L298.660331,259.964863 L24.8521511,477 L24,476.137146 C31.0211428,467.559574 38.0404647,458.983823 45.0579658,450.409892 C78.251802,409.997733 111.447459,369.571012 144.644937,329.129727 C144.933595,328.653593 145.157698,328.141227 145.311363,327.606079 C144.639475,324.362184 142.033859,325.836682 140.356869,325.82576 C122.876845,325.705616 105.353122,325.765688 87.8512483,325.72746 C86.0267708,325.72746 84.1258182,326.169809 82.3668909,325.257805 Z" id="Path" fill="#FEDF15"></path>
            <path d="M34.7705683,236.478278 C35.4545656,289.317295 55.3670942,333.402663 95.5095262,368.116541 C99.4767104,371.550203 99.5369022,373.644299 96.1989955,377.367743 C90.9568404,383.207155 86.1141397,389.396493 81.3644626,395.684249 C79.1209516,398.642228 77.6325735,398.702371 74.743369,396.23101 C41.7473405,368.375342 19.3997815,333.690624 7.70069216,292.176857 C-2.14886859,256.938088 -2.60304278,221.354859 6.64460037,186.105155 C20.0126431,135.125126 48.133139,94.019608 92.554658,64.833487 C132.554819,38.5561365 176.34706,26.6586095 224.347253,30.8085281 C250.782379,33.0939906 275.904231,39.7316734 299.663561,51.5143805 C305.266866,54.2919282 305.27781,54.3520719 300.632101,58.2012718 C293.288706,64.2812581 285.85776,70.2737625 278.563613,76.4138925 C276.374822,78.2674135 274.519821,78.8743186 271.543065,77.6823788 C243.488233,66.4683035 214.530524,62.7065854 184.47842,66.9549211 C124.67517,75.4133192 80.8227368,106.61699 52.5709134,159.548956 C39.8430921,183.398686 34.086571,209.244095 34.7705683,236.478278 Z" id="Path" fill="#000000"></path>
            <path d="M110,419.60101 C119.670902,411.730492 128.669757,404.482192 137.570265,397.108357 C139.433416,395.563727 140.946885,396.300565 142.728079,396.993738 C165.856286,405.955867 189.71664,410.518803 214.626041,409.43265 C252.293383,407.791594 285.835566,395.238063 315.252591,371.772056 C342.992233,349.721505 362.241152,321.727131 372.414722,287.919925 C392.373933,221.571784 373.048521,152.467323 319.415996,106.12296 C315.536708,102.771713 315.564027,100.981471 318.787661,97.47194 C324.202273,91.5717803 329.256275,85.3113888 334.201001,78.9964168 C336.222602,76.4092978 337.44649,76.43113 339.943441,78.5161078 C370.873934,104.35455 392.395788,136.426093 404.880539,174.719822 C414.201758,203.298208 417.206841,232.542478 413.382191,262.179728 C407.672534,306.5319 389.64204,345.486053 358.897315,378.349015 C333.162882,405.873997 302.210533,425.097274 266.116762,435.740485 C236.983854,444.331467 207.228075,445.957968 177.128077,441.837135 C153.715753,438.633255 131.855145,430.882814 110,419.60101 Z" id="Path" fill="#555555"></path>
        </g>
    </g>
</svg>