<?xml version="1.0" encoding="UTF-8"?>
<svg width="40px" height="50px" viewBox="0 0 40 50" version="1.1" xmlns="http://www.w3.org/2000/svg" xmlns:xlink="http://www.w3.org/1999/xlink">
    <title>Artboard</title>
    <g id="Artboard" stroke="none" stroke-width="1" fill="none" fill-rule="evenodd">
        <path d="M9.1392231,32.639052 C9.09112555,32.3866048 9.32103183,32.3058217 9.44849034,32.1764726 C12.3692942,29.2272483 15.2934648,26.2825119 18.2210023,23.3422634 C18.2883388,23.2744633 18.3465369,23.1980079 18.4759193,23.0465396 L12.0741355,23.0465396 C12.0563394,23.0018204 12.0390243,22.9571012 12.0217092,22.9123819 L35.84683,4 L35.9622642,4.11107676 L25.2942278,17.1767817 L30.9937874,17.1767817 L31.0529473,17.2921862 L21.7595389,26.6346557 L21.8153321,26.7543878 L28.1276544,26.7543878 L28.1839285,26.889988 L4.07503218,46 L4,45.9240254 C4.61821383,45.1687675 5.23626733,44.4136699 5.85416051,43.6587326 C8.77688823,40.1004293 11.6997763,36.5408438 14.6228246,32.979976 C14.6482411,32.9380522 14.6679734,32.8929383 14.6815037,32.8458183 C14.6223437,32.5601923 14.3929184,32.6900223 14.2452589,32.6890606 C12.7061373,32.6784819 11.163168,32.6837713 9.62212249,32.6804053 C9.46147667,32.6804053 9.2940972,32.7193543 9.1392231,32.639052 Z" id="Path" stroke="#000000" fill="#FEDF15" fill-rule="nonzero"></path>
    </g>
</svg>