<?xml version="1.0" standalone="no"?>
<!DOCTYPE svg PUBLIC "-//W3C//DTD SVG 20010904//EN"
 "http://www.w3.org/TR/2001/REC-SVG-20010904/DTD/svg10.dtd">
<svg version="1.0" xmlns="http://www.w3.org/2000/svg"
 width="700.000000pt" height="700.000000pt" viewBox="0 0 700.000000 700.000000"
 preserveAspectRatio="xMidYMid meet">
<metadata>
Created by potrace 1.14, written by Peter Selinger 2001-2017
</metadata>
<g transform="translate(0.000000,700.000000) scale(0.100000,-0.100000)"
fill="#000000" stroke="none">
<path d="M5715 6574 c-121 -97 -229 -183 -240 -192 -11 -9 -52 -42 -90 -72
-38 -30 -79 -62 -90 -72 -11 -9 -166 -132 -345 -273 -179 -141 -341 -270 -360
-285 -19 -16 -237 -189 -485 -385 -247 -196 -466 -369 -485 -385 -19 -15 -93
-74 -165 -131 -71 -57 -137 -109 -145 -116 -8 -7 -86 -68 -173 -137 -87 -68
-175 -138 -195 -154 -43 -35 -191 -153 -248 -197 -21 -16 -66 -52 -100 -80
-34 -27 -97 -77 -139 -110 -43 -33 -83 -65 -89 -70 -6 -6 -31 -26 -56 -45 -71
-55 -73 -58 -53 -67 10 -5 232 -8 493 -7 261 0 479 -1 483 -4 5 -2 -59 -72
-142 -156 -82 -83 -406 -410 -720 -726 -314 -316 -572 -582 -573 -590 -3 -13
50 -15 421 -17 323 -2 426 -5 432 -15 8 -12 -2 -37 -23 -60 -7 -7 -33 -38 -58
-68 -25 -30 -52 -64 -62 -75 -60 -72 -376 -458 -488 -595 -117 -144 -190 -232
-261 -317 -10 -13 -56 -69 -101 -125 -46 -57 -88 -107 -94 -113 -6 -5 -38 -44
-70 -85 -32 -41 -61 -77 -64 -80 -3 -3 -25 -30 -50 -60 -25 -30 -53 -64 -62
-75 -9 -11 -74 -90 -143 -175 -70 -85 -138 -168 -151 -185 -46 -56 -5 -37 99
47 57 46 121 97 142 113 128 100 833 659 850 673 11 10 72 57 135 107 63 49
117 92 120 95 3 3 47 39 99 80 52 40 102 79 110 86 25 20 134 106 170 134 18
14 38 30 44 35 14 12 108 87 162 130 22 17 73 57 114 90 42 33 162 128 266
210 207 164 222 175 239 190 6 6 40 33 76 60 36 27 67 52 70 55 3 3 68 55 145
115 152 119 171 135 189 150 6 6 52 42 101 80 50 38 99 77 110 87 11 10 115
92 230 184 249 196 255 201 255 214 0 7 -170 10 -496 10 -424 0 -495 2 -492
14 2 8 326 339 721 736 394 397 715 725 712 730 -3 6 -192 10 -442 10 -240 0
-438 1 -439 3 -3 3 70 94 145 183 14 18 40 49 56 70 17 21 55 68 85 104 30 37
71 86 90 110 19 24 47 58 61 75 14 16 55 66 90 110 112 137 1019 1249 1037
1270 73 87 89 117 63 114 -3 0 -105 -79 -226 -175z"/>
<path d="M3417 6344 c-1 -1 -51 -5 -112 -8 -60 -4 -123 -8 -140 -10 -49 -6
-119 -17 -135 -21 -8 -2 -35 -7 -60 -10 -67 -10 -252 -59 -365 -98 -323 -110
-638 -286 -925 -517 -76 -61 -315 -302 -382 -385 -289 -356 -493 -811 -583
-1299 -33 -183 -40 -265 -40 -496 0 -226 11 -337 51 -535 8 -38 17 -81 20 -95
17 -88 113 -374 166 -495 153 -349 365 -648 655 -924 120 -115 162 -145 185
-135 11 5 79 87 236 285 24 30 31 47 26 63 -4 11 -75 89 -158 171 -219 216
-382 442 -488 675 -22 47 -44 94 -49 105 -49 106 -136 442 -153 590 -25 215
-25 524 0 695 89 600 485 1213 1009 1564 275 185 621 315 985 371 208 31 567
27 771 -10 103 -19 316 -80 424 -122 28 -11 56 -18 63 -17 6 1 18 2 25 3 7 0
49 31 92 67 44 37 100 83 124 103 156 127 172 143 161 156 -22 27 -248 128
-400 178 -142 47 -348 98 -455 111 -22 3 -74 10 -115 16 -91 13 -424 31 -433
24z"/>
<path d="M5182 5603 c-44 -54 -92 -111 -107 -128 -95 -107 -96 -114 -24 -183
202 -191 322 -330 442 -512 135 -205 266 -513 312 -730 2 -8 8 -35 13 -60 6
-25 13 -63 16 -85 4 -23 8 -51 11 -64 36 -190 23 -555 -29 -806 -45 -212 -111
-404 -206 -594 -58 -116 -176 -305 -229 -367 -14 -17 -44 -52 -66 -79 -74 -91
-225 -236 -340 -328 -284 -227 -643 -396 -980 -463 -22 -4 -42 -8 -45 -9 -3
-1 -30 -5 -60 -9 -30 -5 -63 -10 -73 -12 -120 -22 -495 -22 -613 0 -10 2 -41
7 -69 10 -109 15 -340 77 -475 128 -36 14 -73 24 -82 22 -17 -2 -396 -303
-397 -315 -1 -9 203 -104 329 -152 138 -53 220 -79 360 -111 101 -24 138 -31
225 -42 22 -3 51 -7 65 -10 144 -23 562 -23 700 0 14 3 43 7 65 10 322 44 679
166 975 331 191 107 406 270 574 433 311 303 534 640 684 1032 39 101 113 354
127 436 4 21 9 48 11 59 5 30 22 144 29 190 21 164 22 522 0 633 -2 11 -6 43
-10 72 -7 59 -12 83 -19 108 -3 9 -7 33 -10 52 -3 19 -13 62 -21 95 -9 33 -18
70 -20 82 -11 49 -79 244 -120 345 -51 124 -106 236 -170 343 -25 42 -45 80
-45 85 0 5 -3 10 -7 12 -5 2 -29 35 -54 73 -25 39 -83 117 -129 175 -136 171
-403 430 -442 430 -9 0 -52 -43 -96 -97z"/>
</g>
</svg>
